<svg xmlns="http://www.w3.org/2000/svg" viewBox="0 0 640 360">
  <rect width="640" height="360" fill="#0a0a0f"/>
  <rect width="640" height="360" fill="url(#g1)" opacity=".7"/>
  <defs>
    <linearGradient id="g1" x1="0%" y1="0%" x2="100%" y2="100%">
      <stop offset="0%" stop-color="#7c3aed" stop-opacity=".4"/>
      <stop offset="100%" stop-color="#06b6d4" stop-opacity=".1"/>
    </linearGradient>
  </defs>
  <line x1="0" y1="60" x2="640" y2="60" stroke="#1e1e3a" stroke-width="1"/>
  <line x1="0" y1="120" x2="640" y2="120" stroke="#1e1e3a" stroke-width="1"/>
  <line x1="0" y1="180" x2="640" y2="180" stroke="#1e1e3a" stroke-width="1"/>
  <line x1="0" y1="240" x2="640" y2="240" stroke="#1e1e3a" stroke-width="1"/>
  <line x1="0" y1="300" x2="640" y2="300" stroke="#1e1e3a" stroke-width="1"/>
  <line x1="80" y1="0" x2="80" y2="360" stroke="#1e1e3a" stroke-width="1"/>
  <line x1="160" y1="0" x2="160" y2="360" stroke="#1e1e3a" stroke-width="1"/>
  <line x1="240" y1="0" x2="240" y2="360" stroke="#1e1e3a" stroke-width="1"/>
  <line x1="320" y1="0" x2="320" y2="360" stroke="#1e1e3a" stroke-width="1"/>
  <line x1="400" y1="0" x2="400" y2="360" stroke="#1e1e3a" stroke-width="1"/>
  <line x1="480" y1="0" x2="480" y2="360" stroke="#1e1e3a" stroke-width="1"/>
  <line x1="560" y1="0" x2="560" y2="360" stroke="#1e1e3a" stroke-width="1"/>
  <polygon points="320,100 420,260 220,260" fill="none" stroke="#7c3aed" stroke-width="2" opacity=".6"/>
  <circle cx="320" cy="180" r="60" fill="none" stroke="#06b6d4" stroke-width="1.5" opacity=".5"/>
  <text x="50%" y="88%" text-anchor="middle" font-family="'Orbitron',monospace" font-weight="700" font-size="20" fill="#7c3aed" letter-spacing="4">PROJECT ALPHA</text>
  <text x="50%" y="95%" text-anchor="middle" font-family="monospace" font-size="11" fill="#8892a4" letter-spacing="2">ACTION RPG · UNITY</text>
</svg>
